# xmcd
#
# Track frame offsets: 
#        150
#        17141
#        32296
#        52340
#        64908
#        79410
#        92843
#        103369
#        119544
#        131948
#        142342
#        156504
#        168001
#        180802
#        195840
#        208175
#        231815
#        243121
#        255299
#        273679
#
# Disc length: 3824 seconds
#
# Revision: 0
# Processed by: cddbd v1.5.2PL0 Copyright (c) Steve Scherf et al.
# Submitted via: ExactAudioCopy v1.3
#
DISCID=220eee14
DTITLE=Various Artist - Ladies Sing Them Blues [CD1)
DYEAR=2018
DGENRE=Blues
TTITLE0=Billie Holiday - Lady Sings The Blues
TTITLE1=Anita O'Day - Waiter, Make Mine Blues
TTITLE2=Big Maybelle - Blues, Early Early
TTITLE3=Aretha Franklin - Today I Sing The Blues
TTITLE4=Dinah Washington - Me And My Gin
TTITLE5=Blue Lu Barker - Trombone Man Blues
TTITLE6=Annisteen Allen - Wanted
TTITLE7=Morgana King - Mad About Him, Sad Without Him, How Can I Be Gl
TTITLE7=ad Without Him
TTITLE8=Esther Phillips - Aged And Mellow Blues
TTITLE9=Odetta - Go Down Sunshine
TTITLE10=Helen Humes - Cross-Eyed Blues
TTITLE11=Nina Simone - Work Song
TTITLE12=Barbara Dane - Livin' With The Blues
TTITLE13=Trixie Smith - Freight Train Blues
TTITLE14=Marilyn Scott - Uneasy Blues
TTITLE15=Ella Fitzgerald - Ella Hums The Blues
TTITLE16=Lula Reed - Your Love Keeps A-Working On Me
TTITLE17=Ruth Brown - It's Love Baby (24 Hours A Day)
TTITLE18=LaVern Baker - I Ain't Gonna Play No Second Fiddle
TTITLE19=Bessie Smith - Nobody Knows You When You're Down And Out
EXTD=
EXTT0=
EXTT1=
EXTT2=
EXTT3=
EXTT4=
EXTT5=
EXTT6=
EXTT7=
EXTT8=
EXTT9=
EXTT10=
EXTT11=
EXTT12=
EXTT13=
EXTT14=
EXTT15=
EXTT16=
EXTT17=
EXTT18=
EXTT19=
PLAYORDER=
